<svg xmlns="http://www.w3.org/2000/svg" viewBox="0 0 64 64" id="search"><path fill="#399BB9" d="M31.347 8.389c-7.185 7.185-7.185 18.834 0 26.019s18.834 7.185 26.019 0 7.185-18.834 0-26.019-18.834-7.185-26.019 0zm22.958 22.958c-5.494 5.494-14.403 5.494-19.897 0s-5.494-14.403 0-19.897 14.403-5.494 19.897 0 5.495 14.403 0 19.897z"></path><circle cx="44.357" cy="21.398" r="14.069" fill="#FFF"></circle><path fill="#F15439" d="M22.929 36.704c-.845-.845-2.319-.742-3.291.23L5.557 51.015c-.972.972-1.075 2.445-.23 3.291l6.122 6.122c.845.845 2.319.742 3.291-.23l14.081-14.081c.972-.972 1.075-2.445.23-3.291l-.765-.765-4.592-4.592-.765-.765z"></path><path d="M44.356 40.797a19.271 19.271 0 0 1-13.717-5.682c-7.563-7.563-7.563-19.87 0-27.434C34.304 4.018 39.175 2 44.356 2S54.41 4.018 58.073 7.682c3.664 3.664 5.683 8.535 5.683 13.717s-2.019 10.053-5.683 13.717a19.273 19.273 0 0 1-13.717 5.681zm0-36.797c-4.647 0-9.017 1.81-12.303 5.096-6.783 6.784-6.783 17.822 0 24.605 3.286 3.286 7.655 5.096 12.303 5.096s9.017-1.81 12.303-5.096 5.097-7.655 5.097-12.303-1.811-9.017-5.097-12.303S49.004 4 44.356 4z"></path><path d="M44.356 36.468c-4.025 0-7.81-1.567-10.655-4.414-5.875-5.875-5.875-15.436 0-21.312 2.846-2.846 6.63-4.414 10.655-4.414s7.81 1.567 10.656 4.414c5.875 5.875 5.875 15.436 0 21.312a14.97 14.97 0 0 1-10.656 4.414zm0-28.139a12.982 12.982 0 0 0-9.241 3.828c-5.096 5.096-5.096 13.388 0 18.483 2.469 2.468 5.75 3.828 9.241 3.828s6.773-1.359 9.242-3.828c5.096-5.096 5.096-13.388 0-18.483a12.98 12.98 0 0 0-9.242-3.828zM28.344 31.405l1.414 1.414-5.357 5.357-1.414-1.414zM32.935 35.997l1.414 1.414-5.357 5.357-1.414-1.414z"></path><path d="M12.885 62a3 3 0 0 1-2.142-.865l-6.122-6.123c-.617-.616-.922-1.459-.857-2.374.06-.862.446-1.69 1.087-2.331l14.081-14.081c1.309-1.31 3.514-1.42 4.704-.229l6.122 6.122c.617.616.922 1.459.857 2.375a3.672 3.672 0 0 1-1.087 2.331l-14.081 14.08c-.695.696-1.63 1.095-2.562 1.095zm8.609-24.868c-.406 0-.825.185-1.148.509L6.265 51.722c-.3.3-.479.674-.506 1.055-.014.19.005.55.276.821l6.122 6.123c.231.231.524.279.728.279.406 0 .825-.186 1.148-.509L28.114 45.41c.3-.3.479-.674.506-1.055.014-.19-.005-.55-.276-.821l-6.122-6.123a1.014 1.014 0 0 0-.728-.279z"></path></svg>